<svg width="560" height="1011" fill="none" xmlns="http://www.w3.org/2000/svg"><g clip-path="url(#clip0_1_476)"><path d="M291.804 852.705c-129.819 0-235.057 105.337-235.057 235.275 0 129.94 105.238 235.28 235.057 235.28 129.818 0 235.056-105.34 235.056-235.28 0-129.938-105.243-235.275-235.056-235.275zm0 396.375c-88.892 0-160.949-72.13-160.949-161.1 0-88.968 72.062-161.097 160.949-161.097 88.891 0 160.948 72.129 160.948 161.097 0 88.97-72.062 161.1-160.948 161.1z" fill="#FF0B53"/><path d="M101.967 74.607c87.608-11.137 125.265 53.383 103.559 97.453-21.707 44.069-118.117 53.383-104.641 124.76C114.368 368.203-2.841 400.476-2.841 400.476" stroke="#fff" stroke-miterlimit="10"/><path d="M-31.36 93.235s66.785 24.209 133.234 15.517c66.449-8.692 74.219 30.375 66.449 45.93-16.125 32.279-102.322 38.482-107.904 90.621-4.195 39.192 29.147 91.866-46.508 119.796" stroke="#fff" stroke-miterlimit="10"/><path d="M-1.591 119.305s68.264-8.717 56.074 29.796c-13.967 44.144-46.775 43.447-15.77 99.313C49.74 268.287 52.98 348.349-7.795 332.21m121.852-168.214c16.952 0 30.695-7.504 30.695-16.762 0-9.257-13.743-16.761-30.695-16.761-16.952 0-30.695 7.504-30.695 16.761 0 9.258 13.743 16.762 30.695 16.762zm390.354 291.505s-123.164-28.969-160.373 92.693c-26.698 87.298-28.973 134.902-84.357 158.899-55.379 23.998-87.627 29.137-90.934 55.12" stroke="#fff" stroke-miterlimit="10"/><path d="M314.238 762.213s-32.509-80.779 53.284-122.981c57.914-28.49 30.763-125.215 68.295-156.007 29.769-24.414 68.594 28.303 68.594 28.303M339.68 784.039s.989-62.486 67.133-103.451c66.145-40.965 40.255-111.726 78.297-122.483 38.035-10.758 76.071 35.589 76.071 35.589" stroke="#fff" stroke-miterlimit="10"/><path d="M386.207 761.715s-4.96-51.312 45.476-57.932c50.437-6.62 93.433 49.47 93.433 49.47" stroke="#fff" stroke-miterlimit="10"/><path d="M270.654 58.992c0-32.58-26.49-58.992-59.167-58.992-32.677 0-59.167 26.412-59.167 58.992s26.49 58.993 59.167 58.993c32.677 0 59.167-26.412 59.167-58.993z" fill="#FF0B53"/><path d="M143.559 461.446l-19.568 19.58-19.562-19.58-14.602 14.615 19.562 19.58-19.561 19.58 14.601 14.622 19.562-19.587 19.568 19.587 14.601-14.615-19.568-19.587 19.568-19.58-14.601-14.615z" stroke="#FF0B53" stroke-width="4" stroke-miterlimit="10"/><path d="M501.085 199.74l-35.102 35.129-35.095-35.129-26.195 26.219 35.096 35.135-35.096 35.129 26.195 26.218 35.095-35.128 35.102 35.128 26.194-26.218-35.095-35.129 35.095-35.135-26.194-26.219z" fill="#FF0B53"/></g><defs><clipPath id="clip0_1_476"><path fill="#fff" d="M0 0h560v1011H0z"/></clipPath></defs></svg>