<svg width="1920" height="1079" fill="none" xmlns="http://www.w3.org/2000/svg"><g clip-path="url(#clip0_1_58)"><path d="M990.5 787C708.558 787 480 1015.56 480 1297.5S708.558 1808 990.5 1808c281.94 0 510.5-228.56 510.5-510.5S1272.43 787 990.5 787zm0 860.05c-193.056 0-349.55-156.5-349.55-349.55S797.455 947.95 990.5 947.95c193.06 0 349.55 156.5 349.55 349.55s-156.5 349.55-349.55 349.55z" fill="#FF0B53"/><path d="M330.441 139.198c190.269-24.165 272.052 115.83 224.91 211.451-47.142 95.62-256.527 115.83-227.259 270.702 29.281 154.885-225.275 224.91-225.275 224.91" stroke="#fff" stroke-miterlimit="10"/><path d="M40.88 179.617s145.043 52.529 289.358 33.669c144.315-18.859 161.19 65.907 144.315 99.657-35.019 70.038-222.223 83.498-234.346 196.628-9.113 85.037 63.301 199.328-101.007 259.929" stroke="#fff" stroke-miterlimit="10"/><path d="M105.531 236.182s148.257-18.913 121.783 64.652c-30.334 95.782-101.587 94.27-34.249 215.487 23.949 43.119 30.982 216.837-101.007 181.818m264.64-364.986c36.817 0 66.663-16.283 66.663-36.369s-29.846-36.369-66.663-36.369c-36.817 0-66.663 16.283-66.663 36.369s29.846 36.369 66.663 36.369zm1413.382 81.256s-267.49-62.856-348.3 201.123c-57.98 189.419-62.92 292.707-183.21 344.777-120.27 52.071-190.31 63.221-197.49 119.601" stroke="#fff" stroke-miterlimit="10"/><path d="M1357.06 1079.91s-70.6-175.275 115.72-266.845c125.78-61.817 66.82-271.688 148.33-338.499 64.65-52.975 148.97 61.411 148.97 61.411m-357.76 591.283s2.14-135.577 145.8-224.461c143.65-88.884 87.42-242.42 170.04-265.761 82.61-23.342 165.22 77.22 165.22 77.22" stroke="#fff" stroke-miterlimit="10"/><path d="M1513.37 1078.83s-10.78-111.339 98.76-125.703c109.54-14.364 202.92 107.343 202.92 107.343" stroke="#fff" stroke-miterlimit="10"/><path d="M668 180c0-70.692-57.531-128-128.5-128S411 109.308 411 180c0 70.692 57.531 128 128.5 128S668 250.692 668 180z" fill="#FF0B53"/><path d="M313.742 810.122l-42.498 42.484-42.485-42.484-31.711 31.711 42.484 42.485-42.484 42.484 31.711 31.725 42.485-42.498 42.498 42.498 31.711-31.711-42.498-42.498 42.498-42.485-31.711-31.711z" stroke="#FF0B53" stroke-width="4" stroke-miterlimit="10"/><path d="M1846.32 410.71l-76.24 76.221-76.22-76.221-56.89 56.889 76.22 76.235-76.22 76.221 56.89 56.889 76.22-76.221 76.24 76.221 56.88-56.889-76.22-76.221 76.22-76.235-56.88-56.889z" fill="#FF0B53"/></g><defs><clipPath id="clip0_1_58"><path fill="#fff" d="M0 0h1920v1079H0z"/></clipPath></defs></svg>