<svg width="560" height="1011" viewBox="0 0 560 1011" fill="none" xmlns="http://www.w3.org/2000/svg">
<g clip-path="url(#clip0_1_476)">
<path d="M291.804 852.705C161.985 852.705 56.7467 958.042 56.7467 1087.98C56.7467 1217.92 161.985 1323.26 291.804 1323.26C421.622 1323.26 526.86 1217.92 526.86 1087.98C526.86 958.042 421.617 852.705 291.804 852.705ZM291.804 1249.08C202.912 1249.08 130.855 1176.95 130.855 1087.98C130.855 999.012 202.917 926.883 291.804 926.883C380.695 926.883 452.752 999.012 452.752 1087.98C452.752 1176.95 380.69 1249.08 291.804 1249.08Z" fill="#FF0B53"/>
<path d="M101.967 74.6068C189.575 63.4697 227.232 127.99 205.526 172.06C183.819 216.129 87.4092 225.443 100.885 296.82C114.368 368.203 -2.84094 400.476 -2.84094 400.476" stroke="white" stroke-miterlimit="10"/>
<path d="M-31.36 93.2351C-31.36 93.2351 35.4247 117.444 101.874 108.752C168.323 100.06 176.093 139.127 168.323 154.682C152.198 186.961 66.0012 193.164 60.4193 245.303C56.2235 284.495 89.5661 337.169 13.9111 365.099" stroke="white" stroke-miterlimit="10"/>
<path d="M-1.59148 119.305C-1.59148 119.305 66.6726 110.588 54.4831 149.101C40.5157 193.245 7.70766 192.548 38.7131 248.414C49.7403 268.287 52.9788 348.349 -7.79504 332.21" stroke="white" stroke-miterlimit="10"/>
<path d="M114.057 163.996C131.009 163.996 144.752 156.492 144.752 147.234C144.752 137.977 131.009 130.473 114.057 130.473C97.1048 130.473 83.3624 137.977 83.3624 147.234C83.3624 156.492 97.1048 163.996 114.057 163.996Z" stroke="white" stroke-miterlimit="10"/>
<path d="M504.411 455.501C504.411 455.501 381.247 426.532 344.038 548.194C317.34 635.492 315.065 683.096 259.681 707.093C204.302 731.091 172.054 736.23 168.747 762.213" stroke="white" stroke-miterlimit="10"/>
<path d="M314.238 762.213C314.238 762.213 281.729 681.434 367.522 639.232C425.436 610.742 398.285 514.017 435.817 483.225C465.586 458.811 504.411 511.528 504.411 511.528" stroke="white" stroke-miterlimit="10"/>
<path d="M339.68 784.039C339.68 784.039 340.669 721.553 406.813 680.588C472.958 639.623 447.068 568.862 485.11 558.105C523.145 547.347 561.181 593.694 561.181 593.694" stroke="white" stroke-miterlimit="10"/>
<path d="M386.207 761.715C386.207 761.715 381.247 710.403 431.683 703.783C482.12 697.163 525.116 753.253 525.116 753.253" stroke="white" stroke-miterlimit="10"/>
<path d="M270.654 58.9923C270.654 26.4118 244.164 7.452e-05 211.487 8.14639e-05C178.81 8.84078e-05 152.32 26.4118 152.32 58.9924C152.32 91.5729 178.81 117.985 211.487 117.985C244.164 117.985 270.654 91.5729 270.654 58.9923Z" fill="#FF0B53"/>
<path d="M143.559 461.446L123.991 481.026L104.429 461.446L89.8275 476.061L109.389 495.641L89.8275 515.221L104.429 529.843L123.991 510.256L143.559 529.843L158.16 515.228L138.592 495.641L158.16 476.061L143.559 461.446Z" stroke="#FF0B53" stroke-width="4" stroke-miterlimit="10"/>
<path d="M501.085 199.74L465.983 234.869L430.888 199.74L404.693 225.959L439.789 261.094L404.693 296.223L430.888 322.441L465.983 287.313L501.085 322.441L527.279 296.223L492.184 261.094L527.279 225.959L501.085 199.74Z" fill="#FF0B53"/>
</g>
<defs>
<clipPath id="clip0_1_476">
<rect width="560" height="1011" fill="white"/>
</clipPath>
</defs>
</svg>
